<svg width="1408" height="568" viewBox="0 0 1408 568" fill="none" xmlns="http://www.w3.org/2000/svg">
<path d="M1221.86 555.127H1240.95L1349.13 215.615C1360.27 180.215 1368.23 160.907 1408 160.907V148.034H1275.95V160.907H1301.41C1318.91 160.907 1330.04 168.952 1330.04 186.652C1330.04 194.697 1328.45 202.742 1325.27 214.006L1237.77 485.938L1143.9 212.397C1140.72 199.524 1139.13 193.088 1139.13 186.652C1139.13 168.952 1150.26 160.907 1167.77 160.907H1194.81V148.034H1048.44V160.907C1086.63 160.907 1092.99 180.215 1104.13 214.006L1112.08 236.533L1035.72 485.938L938.667 212.397C935.485 199.524 933.894 193.088 933.894 186.652C933.894 168.952 945.031 160.907 962.531 160.907H986.396V148.034H840.027V160.907C879.801 160.907 886.165 180.215 898.893 214.006L1019.81 555.127H1037.31L1124.81 271.932L1221.86 555.127ZM706.386 568C805.026 568 875.028 476.283 875.028 350.776C875.028 226.878 805.026 135.161 706.386 135.161C607.747 135.161 537.745 226.878 537.745 350.776C537.745 476.283 607.747 568 706.386 568ZM706.386 545.473C625.247 545.473 582.292 460.193 582.292 350.776C582.292 242.969 625.247 157.688 706.386 157.688C787.525 157.688 832.072 242.969 832.072 350.776C832.072 460.193 787.525 545.473 706.386 545.473ZM391.376 555.127H534.563V542.255H520.244C496.38 542.255 482.061 526.164 482.061 497.201V0H477.288L385.012 41.8357V54.7082L399.331 48.272C408.877 45.0538 415.241 41.8357 423.195 41.8357C435.923 41.8357 443.878 51.4901 443.878 67.5807V497.201C443.878 526.164 431.15 542.255 405.695 542.255H391.376V555.127ZM0 555.127H230.689C303.873 555.127 367.512 498.81 367.512 428.011C367.512 355.603 303.873 310.55 256.145 307.331C291.146 297.677 343.647 254.232 343.647 191.479C343.647 127.116 289.555 80.4533 224.325 80.4533H0V90.1076H22.2734C50.9107 90.1076 66.8203 104.589 66.8203 130.334V502.028C66.8203 530.992 50.9107 543.864 22.2734 543.864H0V555.127ZM108.185 297.677V102.98H206.825C259.327 102.98 299.101 139.989 299.101 196.306C299.101 251.014 262.508 297.677 208.416 297.677H108.185ZM219.553 532.601H170.233C132.05 532.601 108.185 513.292 108.185 477.892V320.204H221.144C284.782 320.204 319.783 371.694 319.783 426.402C319.783 487.547 278.418 532.601 219.553 532.601Z" fill="black"/>
</svg>
