<svg width="103" height="131" viewBox="0 0 103 131" fill="none" xmlns="http://www.w3.org/2000/svg">
<g clip-path="url(#clip0_191_96)">
<path d="M67.0318 68.611V69.921H69.8111C71.6095 69.921 72.754 70.7398 72.754 72.541C72.754 73.3598 72.5905 74.1785 72.2635 75.3248L63.108 103.326L53.4619 75.161C53.1349 73.851 52.9714 73.196 52.9714 72.541C52.9714 70.7398 54.1159 69.921 55.9143 69.921C63.4349 69.921 69.3207 64.1898 69.3207 56.821C69.3207 49.4523 62.6175 44.8673 57.7127 44.5398C61.3095 43.5573 66.8683 38.9723 66.8683 32.586C66.8683 26.036 61.1461 21.1235 54.4429 21.1235H31.227V22.106H33.5159C36.4588 22.106 38.0937 23.7435 38.0937 26.3635V64.5173C38.0937 67.301 36.4588 68.611 33.5159 68.611H21.908V69.921C25.9953 69.921 26.6492 71.886 27.9572 75.3248L40.5461 110.367H42.3445L51.5 81.3835L61.473 110.367H63.4349L74.7159 75.4885C75.8603 71.886 76.6778 69.921 80.7651 69.921V68.611H67.0318ZM42.3445 23.5798H52.6445C58.0397 23.5798 62.127 27.346 62.127 33.0773C62.127 38.6448 58.3667 43.5573 52.808 43.5573H42.3445V23.5798ZM42.3445 45.8498H54.1159C60.6556 45.8498 64.2524 51.0898 64.2524 56.6573C64.2524 63.0435 60.0016 67.6285 53.9524 67.6285H48.8841C44.7968 67.6285 42.3445 65.6635 42.3445 62.061V45.8498ZM42.181 103.326L32.208 75.161C31.881 73.851 31.7175 73.196 31.7175 72.541C31.7175 70.7398 32.8619 69.921 34.6603 69.921H43.4889C47.4127 69.921 48.0667 71.886 49.3746 75.3248L50.1921 77.6173L42.181 103.326Z" fill="black"/>
<path d="M51.5 0C21.254 0 0 27.6737 0 65.1725C0 103.162 21.254 131 51.5 131C81.5825 131 103 103.162 103 65.1725C103 27.6737 81.5825 0 51.5 0ZM51.173 128.38C24.8508 128.38 6.04921 100.87 6.04921 65.6637C6.04921 30.785 24.8508 3.43875 51.173 3.43875C77.6587 3.43875 96.6238 30.785 96.6238 65.6637C96.6238 100.87 77.6587 128.38 51.173 128.38Z" fill="black"/>
</g>
<defs>
<clipPath id="clip0_191_96">
<rect width="103" height="131" fill="white"/>
</clipPath>
</defs>
</svg>
